<svg xmlns="http://www.w3.org/2000/svg" version="1.1" xmlns:xlink="http://www.w3.org/1999/xlink" xmlns:svgjs="http://svgjs.com/svgjs" width="512" height="512" x="0" y="0" viewBox="0 0 512 512" style="enable-background:new 0 0 512 512" xml:space="preserve" class=""><g><circle cx="256" cy="256" r="256" fill="#ff3f5b" data-original="#ff3f5b" class=""></circle><path fill="#ffffff" fill-rule="evenodd" d="M298.76 225.68a11.991 11.991 0 0 0-8.6 2.99 53.056 53.056 0 0 1-68.32 0 12.024 12.024 0 0 0-8.6-2.99c-43.051 2.33-76.777 34.88-76.777 74.09v55.81c0 10.16 8.607 18.42 19.185 18.42h200.7c10.58 0 19.18-8.26 19.18-18.42v-55.81c0-39.21-33.72-71.76-76.77-74.09zM351.53 350H160.467v-50.23c0-25.15 21.453-46.29 49.611-49.73a77.417 77.417 0 0 0 91.842 0c28.16 3.44 49.61 24.58 49.61 49.73zM256 229.4a64.7 64.7 0 1 1 64.7-64.7 64.771 64.771 0 0 1-64.7 64.7zm0-105.4a40.7 40.7 0 1 0 40.7 40.7A40.749 40.749 0 0 0 256 124z" data-original="#ffffff" class=""></path></g></svg>