<svg xmlns="http://www.w3.org/2000/svg" version="1.1" xmlns:xlink="http://www.w3.org/1999/xlink" xmlns:svgjs="http://svgjs.com/svgjs" width="512" height="512" x="0" y="0" viewBox="0 0 512.005 512" style="enable-background:new 0 0 512 512" xml:space="preserve" class=""><g><path fill="#2196f3" d="M298.668 277.336c-35.285 0-64-28.715-64-64s28.715-64 64-64h42.664V64.004c0-35.285-28.715-64-64-64H48c-7.02 0-13.59 3.453-17.578 9.234-3.969 5.782-4.863 13.145-2.348 19.692l154.668 405.336c3.137 8.277 11.07 13.738 19.926 13.738h74.664c35.285 0 64-28.715 64-64V277.336zm0 0" data-original="#2196f3" class=""></path><path fill="#607d8b" d="M397.164 318.383C389.207 315.074 384 307.289 384 298.668v-64h-85.332c-11.777 0-21.336-9.555-21.336-21.332 0-11.777 9.559-21.332 21.336-21.332H384v-64c0-8.621 5.207-16.406 13.164-19.715a21.33 21.33 0 0 1 23.25 4.633l85.336 85.332c8.34 8.34 8.34 21.824 0 30.164l-85.336 85.336a21.335 21.335 0 0 1-23.25 4.629zm0 0" data-original="#607d8b"></path><path fill="#64b5f6" d="M184.45 44.844 56.257 2.114C27.328-6.782 0 14.573 0 42.667v384c0 18.242 11.605 34.52 28.887 40.492l128.168 42.73c4.715 1.45 9.047 2.114 13.613 2.114 23.531 0 42.664-19.137 42.664-42.668v-384c0-18.238-11.605-34.516-28.883-40.492zm0 0" data-original="#64b5f6" class=""></path></g></svg>