<svg xmlns="http://www.w3.org/2000/svg" version="1.1" xmlns:xlink="http://www.w3.org/1999/xlink" xmlns:svgjs="http://svgjs.com/svgjs" width="512" height="512" x="0" y="0" viewBox="0 0 512 512" style="enable-background:new 0 0 512 512" xml:space="preserve" class="hovered-paths"><g><path fill="#ffc250" d="M337.009 493.087V61.038c0-10.446-8.468-18.913-18.914-18.913H53.955c-10.446 0-18.913 8.468-18.913 18.913v432.049c0 10.446 8.468 18.913 18.913 18.913h264.141c10.445 0 18.913-8.468 18.913-18.913z" data-original="#ffc250" class=""></path><path fill="#eab14d" d="M380.107 42.124h-63.299c10.446 0 18.914 8.468 18.914 18.913v432.049c0 10.446-8.468 18.913-18.914 18.913h63.299c10.446 0 18.914-8.468 18.914-18.913V61.038c0-10.446-8.468-18.914-18.914-18.914z" data-original="#eab14d" class=""></path><path fill="#f5f5f5" d="M65.955 474.326V79.798a6.76 6.76 0 0 1 6.76-6.76h288.632a6.76 6.76 0 0 1 6.76 6.76v394.528a6.76 6.76 0 0 1-6.76 6.76H72.715a6.76 6.76 0 0 1-6.76-6.76z" data-original="#f5f5f5" class=""></path><path fill="#eaeaea" d="M361.347 73.038h-63.299a6.76 6.76 0 0 1 6.76 6.76v394.528a6.76 6.76 0 0 1-6.76 6.76h63.299a6.76 6.76 0 0 0 6.76-6.76V79.798a6.76 6.76 0 0 0-6.76-6.76z" data-original="#eaeaea" class=""></path><path fill="#c2d0da" d="M257.21 23.538v-9.957c0-7.5-6.08-13.581-13.581-13.581h-53.197c-7.501 0-13.581 6.081-13.581 13.581v9.957a5.554 5.554 0 0 1-5.554 5.554h-22.14c-7.365 0-13.336 5.971-13.336 13.336v30.61H298.24v-30.61c0-7.365-5.971-13.336-13.336-13.336h-22.14a5.554 5.554 0 0 1-5.554-5.554z" data-original="#c2d0da"></path><g fill="#66b49d"><path d="M105.278 182.792v-59.538c0-6.596 5.348-11.944 11.944-11.944h59.538c6.596 0 11.944 5.348 11.944 11.944v59.538c0 6.596-5.348 11.944-11.944 11.944h-59.538c-6.597 0-11.944-5.348-11.944-11.944zM105.278 306.832v-59.538c0-6.596 5.348-11.944 11.944-11.944h59.538c6.596 0 11.944 5.348 11.944 11.944v59.538c0 6.596-5.348 11.944-11.944 11.944h-59.538c-6.597 0-11.944-5.348-11.944-11.944zM105.278 430.871v-59.538c0-6.596 5.348-11.944 11.944-11.944h59.538c6.596 0 11.944 5.348 11.944 11.944v59.538c0 6.596-5.348 11.944-11.944 11.944h-59.538c-6.597 0-11.944-5.347-11.944-11.944z" fill="#66b49d" data-original="#66b49d"></path></g><path fill="#f6f9f9" d="M141.951 174.344h-.026a10.778 10.778 0 0 1-8.655-4.417l-9.022-12.39a7.727 7.727 0 0 1 12.492-9.097l5.231 7.185 15.295-20.78a7.726 7.726 0 0 1 10.802-1.642 7.726 7.726 0 0 1 1.642 10.803l-19.112 25.965a10.773 10.773 0 0 1-8.647 4.373zM141.95 301.083h-.028a10.774 10.774 0 0 1-8.654-4.419l-9.02-12.388a7.727 7.727 0 0 1 12.492-9.097l5.231 7.185 15.295-20.78a7.727 7.727 0 0 1 12.444 9.161l-19.112 25.965a10.768 10.768 0 0 1-8.648 4.373zM141.95 422.425l-.026-.001a10.777 10.777 0 0 1-8.654-4.415l-9.022-12.392a7.726 7.726 0 1 1 12.493-9.095l5.23 7.184 15.296-20.78a7.727 7.727 0 0 1 12.444 9.161l-19.112 25.965a10.778 10.778 0 0 1-8.649 4.373z" data-original="#f6f9f9"></path><path fill="#ddeafb" d="M322.692 144.605h-95.515a7.726 7.726 0 1 1 0-15.452h95.515a7.726 7.726 0 1 1 0 15.452zM274.935 176.892h-47.757a7.726 7.726 0 1 1 0-15.452h47.757a7.726 7.726 0 1 1 0 15.452zM291.264 268.645h-64.086a7.726 7.726 0 1 1 0-15.452h64.086a7.726 7.726 0 1 1 0 15.452zM274.935 300.932h-47.757a7.726 7.726 0 1 1 0-15.452h47.757a7.726 7.726 0 1 1 0 15.452z" data-original="#ddeafb"></path><path fill="#fc8086" d="m446.91 201.718-7.586-9.994-28.385-17.975-10.911-1.719-145.345 229.673a59.825 59.825 0 0 0-7.616 17.987 46.82 46.82 0 0 1 41.494 26.276 59.821 59.821 0 0 0 13.004-14.575z" data-original="#fc8086" class="hovered-path"></path><path fill="#8c9ba6" d="m467.43 130.992-12.265-7.767c-9.561-6.055-22.221-3.21-28.273 6.353l-11.247 17.773 3.588 7.233 34.13 21.613 9.165.842 11.254-17.784c6.048-9.558 3.205-22.211-6.352-28.263z" data-original="#8c9ba6"></path><path fill="#c9e2e7" d="m400.044 171.964 15.625-24.678 46.89 29.688-15.624 24.678z" data-original="#c9e2e7"></path><path fill="#7c8b96" d="m288.561 445.967-41.385 33.35c-5.838 4.705-14.32-.666-12.563-7.955l12.454-51.671a46.816 46.816 0 0 1 41.494 26.276z" data-original="#7c8b96"></path><path fill="#fb636f" d="m277.706 431.649 152.359-240.598-13.055-8.267-152.359 240.598a46.834 46.834 0 0 1 13.055 8.267z" data-original="#fb636f"></path></g></svg>