<svg xmlns="http://www.w3.org/2000/svg" version="1.1" xmlns:xlink="http://www.w3.org/1999/xlink" xmlns:svgjs="http://svgjs.com/svgjs" width="512" height="512" x="0" y="0" viewBox="0 0 512 512" style="enable-background:new 0 0 512 512" xml:space="preserve" class=""><g><path d="m286.136 501.409 149.861-234.084-43.318-35.462 58.228-11.125-25.871-134.11h79.937v414.781z" style="" fill="#5a6b96" data-original="#5a6b96" class=""></path><path d="m213.089 501.409 2.788-6.796L382.184 88.372l.669-1.744h48.317l26.794 138.895-51.501 9.839 37.497 30.696-150.672 235.351z" style="" fill="#49577a" data-original="#49577a" class=""></path><path d="m295.998 153.659-44.132-64.737L362.167 8.717l25.948 81.012-1.221 3.183h-2.082l-84.353 61.339-2.404 2.403z" style="" fill="#efefef" data-original="#efefef" class=""></path><path d="M299.704 295.031 269.733 174.19l26.671-24.403.119-.12 87.269-63.46 4.94 2.071-84.641 206.753z" style="" fill="#efefef" data-original="#efefef" class=""></path><path d="M142.168 10.59h227.664L256 93.364z" style="" fill="#d4d4d4" data-original="#d4d4d4"></path><path d="m253.978 407.542-47.2-115.297 30.24-120.053h38.424l28.974 116.816h2.131l-1.69 4.153-46.826 114.381z" style="" fill="#ff4f4f" data-original="#ff4f4f"></path><path d="m238.234 178.215-29.472-25.766 47.259-68.124 46.424 68.098-28.189 25.792z" style="" fill="#ff4f4f" data-original="#ff4f4f"></path><path d="m68.04 266.058 37.497-30.696-51.501-9.839L80.83 86.628h48.268l83.629 204.251 45.295 110.639h2.466l-1.691 4.153-39.544 96.593z" style="" fill="#49577a" data-original="#49577a" class=""></path><path d="m123.545 90.795 26.288-82.078 110.321 80.218-46.663 67.265z" style="" fill="#efefef" data-original="#efefef" class=""></path><path d="m120.272 80.967 94.38 68.629 28.084 24.554-32.112 127.487z" style="" fill="#efefef" data-original="#efefef" class=""></path><path d="M7.027 501.409V86.628h79.937l-25.871 134.11 58.228 11.125-43.318 35.462 146.041 228.126-2.444 5.958z" style="" fill="#5a6b96" data-original="#5a6b96" class=""></path><path d="M512 89.64c0-5.544-4.496-10.039-10.039-10.039H392.25l-22.084-68.948-.027-.085-.009-.028c-.007-.021-.017-.04-.023-.06a9.981 9.981 0 0 0-.372-.963c-.042-.093-.088-.184-.133-.276a9.404 9.404 0 0 0-.996-1.636c-.069-.092-.136-.188-.208-.278-.199-.248-.41-.485-.63-.713-.031-.032-.058-.067-.09-.099a10.378 10.378 0 0 0-.805-.721c-.08-.065-.166-.122-.248-.186a9.735 9.735 0 0 0-.65-.457c-.098-.063-.199-.122-.299-.182a9.552 9.552 0 0 0-.698-.376c-.095-.046-.189-.094-.286-.138a10.005 10.005 0 0 0-.867-.342c-.045-.016-.088-.038-.135-.053l-.037-.01a9.81 9.81 0 0 0-1.112-.291c-.032-.006-.063-.008-.095-.015a10.385 10.385 0 0 0-.99-.137c-.13-.011-.258-.013-.388-.019-.167-.008-.33-.025-.498-.025H151.432c-.169 0-.332.017-.498.025-.13.006-.257.008-.387.019a9.527 9.527 0 0 0-.993.138c-.031.006-.062.008-.092.014-.379.075-.751.175-1.113.291l-.037.01c-.046.015-.088.037-.135.053-.295.101-.585.215-.867.342-.097.044-.191.091-.286.138a9.951 9.951 0 0 0-.698.376c-.1.059-.201.118-.299.182-.224.144-.439.297-.651.457-.082.062-.168.12-.248.186-.281.227-.551.466-.806.721-.031.032-.059.067-.09.099a9.906 9.906 0 0 0-.63.713c-.072.09-.139.185-.208.278-.152.203-.297.411-.434.624a9.815 9.815 0 0 0-.562 1.012c-.044.092-.091.182-.133.276-.14.313-.265.633-.372.963-.007.021-.017.039-.023.06l-.009.028-.027.085L119.749 79.6H10.039C4.496 79.6 0 84.096 0 89.639v408.757c0 5.544 4.496 10.039 10.039 10.039h207.476l.061.003c.013 0 .026-.003.04-.003h73.999l.014.001.016-.001H501.96c5.544 0 10.039-4.496 10.039-10.039V89.64zM393.212 241.381l33.495 27.42-140.561 219.557h-53.607L391.659 99.68h28.738l22.276 115.478-44.986 8.595a10.038 10.038 0 0 0-4.475 17.628zM122.16 231.142a10.037 10.037 0 0 0-7.847-7.39l-44.986-8.595L91.604 99.679h28.735l80.31 196.145 44.508 108.719-28.46 69.521L85.292 268.801l33.497-27.42a10.04 10.04 0 0 0 3.371-10.239zm133.845 146.902-35.524-86.772 26.707-106.029h18.043l26.297 106.024-35.523 86.777zm-.077-270.688 29.363 43.073-16.104 14.735h-26.052l-16.998-14.862 29.791-42.946zm-49.425 52.452 21.624 18.906-20.465 81.248-57.902-141.415 56.743 41.261zm97.909 99.992-20.145-81.219 20.592-18.842 57.686-41.947L304.412 259.8zm-3.461-122.044L269.78 92.033l85.463-62.144 17.767 55.47-72.059 52.397zM256 77.227l-73.692-53.585h147.385L256 77.227zm-99.243-47.339 85.398 62.097-31.781 45.813-71.522-52.008 17.905-55.902zM20.078 99.679h51.076l-23.447 121.55a10.039 10.039 0 0 0 7.973 11.763l33.777 6.453-23.795 19.478a10.04 10.04 0 0 0-2.095 13.181l138.441 216.253H20.078V99.679zm471.844 388.679H309.987l138.447-216.253a10.039 10.039 0 0 0-2.096-13.181l-23.794-19.478 33.776-6.453a10.042 10.042 0 0 0 7.974-11.763L440.846 99.68h51.076v388.678z" fill="#000000" data-original="#000000" class=""></path><path d="M464.816 375.128c12.919 0 12.941-20.078 0-20.078-12.92 0-12.941 20.078 0 20.078zM464.816 387.175c-5.544 0-10.039 4.496-10.039 10.039v61.909c0 5.544 4.496 10.039 10.039 10.039 5.544 0 10.039-4.496 10.039-10.039v-61.909c0-5.544-4.496-10.039-10.039-10.039z" fill="#000000" data-original="#000000" class=""></path></g></svg>